<?xml version="1.0" encoding="utf-8"?>
<!-- Generator: Adobe Illustrator 23.0.1, SVG Export Plug-In . SVG Version: 6.00 Build 0)  -->
<svg version="1.1" id="Vrstva_1" xmlns="http://www.w3.org/2000/svg" xmlns:xlink="http://www.w3.org/1999/xlink" x="0px" y="0px"
	 viewBox="0 0 283.5 105.4" style="enable-background:new 0 0 283.5 105.4;" xml:space="preserve">
<style type="text/css">
	.st0{fill:#146388;}
	.st1{fill:#228ABC;}
	.st2{fill:#4FC6E0;}
	.st3{fill:#FFFFFF;}
</style>
<g>
	<g>
		<g>
			<path class="st0" d="M54,31c7.7,0,14.5,4.2,18.1,10.7l4.3-4.3C71.6,29.8,63.3,25.1,54,25.1c-11.8,0-22,7.6-25.4,18.9l5.7,1.7
				C36.8,36.9,44.8,31,54,31z"/>
			<path class="st0" d="M44,69.7c-4.6-2.6-8.2-6.8-9.8-12l-5.7,1.7c1.9,6.3,5.9,11.4,11.1,14.7L44,69.7z"/>
		</g>
		<g>
			<path class="st1" d="M78.3,27.3c1.4,1.4,2.6,2.8,3.7,4.4l4.2-4.2c-1.1-1.5-2.4-3-3.7-4.3C69.8,10.5,50.7,7.6,35,16.1l2.8,5.2
				C51.2,14.1,67.5,16.5,78.3,27.3z"/>
			<path class="st1" d="M34,79.7c-1.5-1.1-3-2.3-4.4-3.7c-10.8-10.8-13.2-27.1-6-40.5l-5.2-2.8c-8.4,15.8-5.6,34.9,7.1,47.5
				c1.4,1.4,2.8,2.6,4.3,3.7L34,79.7z"/>
		</g>
		<g>
			<path class="st2" d="M91.8,21.9l4.2-4.2C89.4,9.5,80.3,3.2,69.6,0l-1.7,5.7C77.6,8.6,85.9,14.4,91.8,21.9z"/>
			<path class="st2" d="M24.2,89.4C12.9,80.6,5.9,66.8,5.9,51.6c0-21.3,13.7-39.8,34.1-46L38.3,0C15.4,6.9,0,27.7,0,51.6
				c0,16.8,7.6,32,20,42L24.2,89.4z"/>
		</g>
	</g>
	<g>
		<path class="st3" d="M76.4,59.4l-6.2,7.4H69l-6.1-7.4v14.5H56V49.5h7.2l6.4,8.3l6.4-8.3h7.2v24.4h-6.8
			C76.4,73.9,76.4,59.4,76.4,59.4z"/>
		<path class="st3" d="M105,69.9H94.1l-1.6,4h-7.3l10.9-24.4h7L114,73.9h-7.4L105,69.9z M99.6,56.3l-3.1,7.8h6.2L99.6,56.3z"/>
		<path class="st3" d="M130.8,56.3c-1.7-1.3-3.6-1.7-5.7-1.7c-1.7,0-3.3,0.5-3.3,1.8c0,1.7,1.6,1.9,4,2.2c4.8,0.5,9.9,2.5,9.9,8.1
			c0,5.5-5.2,7.9-10.7,7.9c-4.4,0-7.5-0.7-10.9-4.3l3.8-4.4c2.4,2.3,5.1,2.8,7.1,2.8c2.3,0,3.8-0.8,3.8-2.2c0-1.2-1.4-2-4.1-2.2
			c-5.3-0.5-9.9-1.8-9.9-7.9c0-5.2,5.1-7.4,10.2-7.4c3.7,0,6.5,0.8,9.1,2.9L130.8,56.3z"/>
		<path class="st3" d="M143.9,55.2h-7.1v-5.7h21.1v5.7h-7.1v18.7h-6.9V55.2z"/>
		<path class="st3" d="M180.4,73.9h-19.5V49.5h19v5.8h-12.2v3.5h11.5v5.6h-11.5v3.7h12.7V73.9z"/>
		<path class="st3" d="M206.9,73.9h-7.6l-5.7-7.9h-2.4v7.9h-6.9V49.5h11.9c6.2,0,9.5,4,9.5,8.4c0,3-1,5.5-5.2,7.4l6.3,8.2
			L206.9,73.9L206.9,73.9z M191.2,55v5.9h5.1c1.8,0,2.6-1.4,2.6-2.8c0-1.5-0.9-3-2.7-3h-5V55z"/>
		<path class="st3" d="M228.5,55.1c-1.7-1.7-4.3-2.6-6.6-2.6c-5.7,0-9,4.3-9,9.4c0,4.5,2.6,8.8,9,8.8c2.1,0,4-0.5,6-2.2v-4.9h-6.8
			v-3.5h10.4v10c-2.4,2.7-5.5,4.3-9.6,4.3c-9,0-12.8-6-12.8-12.4c0-7,4.5-13,12.8-13c3.2,0,6.5,1.2,9,3.7L228.5,55.1z"/>
		<path class="st3" d="M256.9,49.5v14.3c0,7.2-4.7,10.8-10.6,10.6c-5.4-0.1-10.1-3.6-10.1-10.6V49.5h3.9v14.3c0,4.4,2.6,6.8,6.2,7
			c3.9,0.2,6.8-2.3,6.8-7V49.5H256.9z"/>
		<path class="st3" d="M279.6,66.9V49.5h3.9v24.4h-3l-13.8-17.2v17.2h-3.9V49.5h3L279.6,66.9z"/>
	</g>
	<g>
		<g>
			<path class="st3" d="M77.1,101.8c-2.5,2.5-5.8,3.6-9.2,3.6c-8.9,0-12.8-6.1-12.9-12.5c0-6.4,4.1-12.8,12.9-12.8
				c3.3,0,6.4,1.2,8.9,3.7l-2.6,2.5c-1.7-1.7-4-2.5-6.3-2.5c-6.2,0-9,4.6-9,9.1s2.7,8.9,9,8.9c2.3,0,4.8-0.9,6.5-2.6L77.1,101.8z"/>
			<path class="st3" d="M80.1,80.5h17.8v1.8l-13.4,18.9h13.4v3.7H79v-2.2l13.2-18.6H80.1V80.5z"/>
			<path class="st3" d="M120.4,104.9h-18c0-8.1,0-16.3,0-24.4h17.9v3.8h-14v6.6h13.5v3.6h-13.5v6.6h14.1V104.9z"/>
			<path class="st3" d="M145.7,101.8c-2.5,2.5-5.8,3.6-9.2,3.6c-8.9,0-12.8-6.1-12.9-12.5c0-6.4,4.1-12.8,12.9-12.8
				c3.3,0,6.4,1.2,8.9,3.7l-2.6,2.5c-1.7-1.7-4-2.5-6.3-2.5c-6.2,0-9,4.6-9,9.1s2.7,8.9,9,8.9c2.3,0,4.8-0.9,6.5-2.6L145.7,101.8z"
				/>
			<path class="st3" d="M166.4,104.9V94.8h-12.9v10.1h-3.9V80.5h3.9v10.6h12.9V80.5h3.9v24.4H166.4z"/>
		</g>
	</g>
</g>
</svg>
