<svg xmlns="http://www.w3.org/2000/svg" width="61.392" height="31.085" viewBox="0 0 61.392 31.085">
  <g id="Datový_zdroj_9" data-name="Datový zdroj 9" transform="translate(0 0)">
    <g id="Vrstva_1" data-name="Vrstva 1" transform="translate(0 0)">
      <path id="Path_1" data-name="Path 1" d="M0,4.1C-.021,1.143,1.54-.014,3.8.01L57.917,0a3.484,3.484,0,0,1,3.474,3.385V27.844a2.961,2.961,0,0,1-3.023,3.241H3.8c-2.1,0-3.716-.665-3.724-3.241L0,4.1" transform="translate(0.001)" fill="#ffc10e"/>
      <path id="Path_2" data-name="Path 2" d="M10.64,7.708H64.7a2.113,2.113,0,0,1,1.88,1.756V23.01L8.51,23.03V10.2A2.531,2.531,0,0,1,9.3,8.145a2.126,2.126,0,0,1,1.343-.438" transform="translate(-6.81 -6.167)" fill="#fff"/>
      <path id="Path_3" data-name="Path 3" d="M29.209,33.564a7.071,7.071,0,0,1-4.042-1.425h-.148v.849H22.943V29.917h1.72c1.179,1.75,2.935,2.364,5.411,1.95a3.263,3.263,0,0,0,.977-.316l.258-.2a.9.9,0,0,0,.256-.875,1.155,1.155,0,0,0-.871-.8c-2.222-.418-4.555-.086-6.755-1a2.722,2.722,0,0,1-1.289-2.2,3.021,3.021,0,0,1,.2-1.107,4.949,4.949,0,0,1,3.686-1.928,10.53,10.53,0,0,1,5.662.933V23.9c2.529-.038,4.727-.012,7.011-.012.422.372.8.885,1.211,1.281.346-.33.825-.857,1.247-1.281h10.39v1.277H50.6c-.665.038-1,.168-.2,1.319.933,1.341,2.569,3.706,2.851,4.1.442-.6,1.722-3.039,2.619-4.561.294-.5.384-.743-.162-.871-.38,0-.631.01-1.215.01V23.888h4.428c1.115,0,5.183-.014,7.057,0v1.277c-2.074.05-1.882.188-1.882,2.751,1.467-.7,3.243-1.526,4.4-2.174.38-.2.539-.38.44-.577h-1.6V23.888h7.193v1.277H73.264c-1.317.629-2.553,1.145-3.828,1.846,1.375,1.315,2.737,2.689,4.126,4a1.962,1.962,0,0,0,1.5.388V32.81h-7.71V31.4c.354,0,1.281.06,1.267-.342.248-.474-1.832-1.946-2.617-2.553-.444.232-.839.476-1.343.759-.086.086-.428.24-.549.362,0,1.1,0,1.774.388,1.774s1-.018,1.48,0v1.415c-1.115.024-5.632.014-6.663.014h-.456V31.4h1.429c.549,0,.452-.815.466-3.58,0-.669-.022-1.317-.014-1.818,0-.915-.523-.839-1.157-.839-.565,0-1,0-1.2.316-.745,1.3-1.221,2.184-2,3.51-.749,1.377-1.455,2.559-2.154,3.85-1.179,0-2.36-.022-3.6-.022-1.6-2.685-2.687-4.6-4.505-7.287-.651-.5-2.282-.336-3.648-.368-.294.32-.651.577-.933.945l.05.086a13.917,13.917,0,0,1,2.2.418,2.813,2.813,0,0,1,1.323.759c.388.35.6,1.223.108,1.61a2.58,2.58,0,0,1-2.707.19c-.424-.262-.492-.617-.186-1.229.024-.284-.178-.472-.527-.6a3.572,3.572,0,0,0-1.85-.126,2.6,2.6,0,0,0-1.369,1.315,3.544,3.544,0,0,0,.044,2.046,2.008,2.008,0,0,0,1.323,1.373,2.974,2.974,0,0,0,2.933-.324,1.626,1.626,0,0,0,.691-1.049h1.938a3.684,3.684,0,0,1-1.48,2.088c-1.485,1.1-4.4,1.093-6.264.537a3.44,3.44,0,0,1-2.37-2.138,3.371,3.371,0,0,1,.122-2.811c.639-1.279,2.248-1.892,3.772-2.014l.024-.088c-.2-.318-.615-.649-.847-.969-1.678-.012-2.891,0-4.352,0-.018.314.014.6,0,1.235h-1.84l-.356-.32c-1.2-1.051-4.044-1.926-5.526-1.2l-.258.2a.691.691,0,0,0-.038,1c1.437,1.289,3.472.579,5.7,1.095a4.275,4.275,0,0,1,2.485,1.275,2.788,2.788,0,0,1,0,2.458c0,.146-.124.146-.174.356a5.6,5.6,0,0,1-4.3,2.3h-.605" transform="translate(-18.124 -18.681)" fill="#ffc10e"/>
      <rect id="Rectangle_1" data-name="Rectangle 1" width="58.075" height="5.668" transform="translate(1.702 21.039)" fill="#fff"/>
      <rect id="Rectangle_2" data-name="Rectangle 2" width="58.075" height="0.899" transform="translate(1.702 22.675)" fill="#25408d"/>
      <rect id="Rectangle_3" data-name="Rectangle 3" width="58.075" height="0.899" transform="translate(1.702 24.585)" fill="#25408d"/>
      <rect id="Rectangle_4" data-name="Rectangle 4" width="58.077" height="2.869" transform="translate(1.7 18.617)" fill="#25408d"/>
      <path id="Path_4" data-name="Path 4" d="M8.486,132.93H66.565v1.245c0,1.2-.511,1.734-1.429,1.734H10.022a1.444,1.444,0,0,1-1.542-1.624V132.93" transform="translate(-6.786 -106.371)" fill="#25408d"/>
    </g>
  </g>
</svg>
